<?xml version="1.0" encoding="UTF-8" standalone="no"?>
<!DOCTYPE svg PUBLIC "-//W3C//DTD SVG 1.1//EN"
 "http://www.w3.org/Graphics/SVG/1.1/DTD/svg11.dtd">
<!-- Generated by graphviz version 9.0.0 (20230911.1827)
 -->
<!-- Pages: 1 -->
<svg width="1326pt" height="666pt"
 viewBox="0.00 0.00 1325.88 665.75" xmlns="http://www.w3.org/2000/svg" xmlns:xlink="http://www.w3.org/1999/xlink">
<g id="page0,1_graph0" class="graph" transform="scale(1 1) rotate(0) translate(4 661.75)">
<polygon fill="white" stroke="none" points="-4,4 -4,-661.75 1321.88,-661.75 1321.88,4 -4,4"/>
<!-- N1 -->
<g id="node1" class="node">
<title>N1</title>
<polygon fill="none" stroke="black" points="733.12,-657.75 652.62,-657.75 652.62,-555 733.12,-555 733.12,-657.75"/>
<text text-anchor="middle" x="692.88" y="-640.45" font-family="Times New Roman,serif" font-size="14.00">OXO</text>
<text text-anchor="middle" x="692.88" y="-624.7" font-family="Times New Roman,serif" font-size="14.00">.X.</text>
<text text-anchor="middle" x="692.88" y="-608.95" font-family="Times New Roman,serif" font-size="14.00">..X</text>
<text text-anchor="middle" x="692.88" y="-577.2" font-family="Times New Roman,serif" font-size="14.00"> </text>
<text text-anchor="middle" x="692.88" y="-561.45" font-family="Times New Roman,serif" font-size="14.00">4890/10000</text>
</g>
<!-- N2 -->
<g id="node2" class="node">
<title>N2</title>
<polygon fill="none" stroke="black" points="174.88,-519 120.88,-519 120.88,-416.25 174.88,-416.25 174.88,-519"/>
<text text-anchor="middle" x="147.88" y="-501.7" font-family="Times New Roman,serif" font-size="14.00">OXO</text>
<text text-anchor="middle" x="147.88" y="-485.95" font-family="Times New Roman,serif" font-size="14.00">.X.</text>
<text text-anchor="middle" x="147.88" y="-470.2" font-family="Times New Roman,serif" font-size="14.00">O.X</text>
<text text-anchor="middle" x="147.88" y="-438.45" font-family="Times New Roman,serif" font-size="14.00"> </text>
<text text-anchor="middle" x="147.88" y="-422.7" font-family="Times New Roman,serif" font-size="14.00">&#45;9/23</text>
</g>
<!-- N1&#45;&gt;N2 -->
<g id="edge1" class="edge">
<title>N1&#45;&gt;N2</title>
<path fill="none" stroke="black" d="M652.36,-595.21C550.68,-569.69 285.76,-503.22 186.33,-478.27"/>
<polygon fill="black" stroke="black" points="187.34,-474.92 176.79,-475.88 185.63,-481.71 187.34,-474.92"/>
</g>
<!-- N3 -->
<g id="node3" class="node">
<title>N3</title>
<polygon fill="none" stroke="black" points="613.88,-519 559.88,-519 559.88,-416.25 613.88,-416.25 613.88,-519"/>
<text text-anchor="middle" x="586.88" y="-501.7" font-family="Times New Roman,serif" font-size="14.00">OXO</text>
<text text-anchor="middle" x="586.88" y="-485.95" font-family="Times New Roman,serif" font-size="14.00">.X.</text>
<text text-anchor="middle" x="586.88" y="-470.2" font-family="Times New Roman,serif" font-size="14.00">.OX</text>
<text text-anchor="middle" x="586.88" y="-438.45" font-family="Times New Roman,serif" font-size="14.00"> </text>
<text text-anchor="middle" x="586.88" y="-422.7" font-family="Times New Roman,serif" font-size="14.00">&#45;7/33</text>
</g>
<!-- N1&#45;&gt;N3 -->
<g id="edge2" class="edge">
<title>N1&#45;&gt;N3</title>
<path fill="none" stroke="black" d="M653.71,-554.84C643.07,-541.12 631.63,-526.36 621.28,-513.01"/>
<polygon fill="black" stroke="black" points="624.13,-510.97 615.23,-505.21 618.59,-515.26 624.13,-510.97"/>
</g>
<!-- N4 -->
<g id="node4" class="node">
<title>N4</title>
<polygon fill="none" stroke="black" points="810.75,-519 737,-519 737,-416.25 810.75,-416.25 810.75,-519"/>
<text text-anchor="middle" x="773.88" y="-501.7" font-family="Times New Roman,serif" font-size="14.00">OXO</text>
<text text-anchor="middle" x="773.88" y="-485.95" font-family="Times New Roman,serif" font-size="14.00">OX.</text>
<text text-anchor="middle" x="773.88" y="-470.2" font-family="Times New Roman,serif" font-size="14.00">..X</text>
<text text-anchor="middle" x="773.88" y="-438.45" font-family="Times New Roman,serif" font-size="14.00"> </text>
<text text-anchor="middle" x="773.88" y="-422.7" font-family="Times New Roman,serif" font-size="14.00">4915/9930</text>
</g>
<!-- N1&#45;&gt;N4 -->
<g id="edge3" class="edge">
<title>N1&#45;&gt;N4</title>
<path fill="none" stroke="black" d="M722.81,-554.84C727.73,-546.53 732.88,-537.84 737.93,-529.31"/>
<polygon fill="black" stroke="black" points="740.94,-531.1 743.02,-520.71 734.92,-527.53 740.94,-531.1"/>
</g>
<!-- N5 -->
<g id="node5" class="node">
<title>N5</title>
<polygon fill="none" stroke="black" points="1103.88,-519 1049.88,-519 1049.88,-416.25 1103.88,-416.25 1103.88,-519"/>
<text text-anchor="middle" x="1076.88" y="-501.7" font-family="Times New Roman,serif" font-size="14.00">OXO</text>
<text text-anchor="middle" x="1076.88" y="-485.95" font-family="Times New Roman,serif" font-size="14.00">.XO</text>
<text text-anchor="middle" x="1076.88" y="-470.2" font-family="Times New Roman,serif" font-size="14.00">..X</text>
<text text-anchor="middle" x="1076.88" y="-438.45" font-family="Times New Roman,serif" font-size="14.00"> </text>
<text text-anchor="middle" x="1076.88" y="-422.7" font-family="Times New Roman,serif" font-size="14.00">&#45;9/14</text>
</g>
<!-- N1&#45;&gt;N5 -->
<g id="edge4" class="edge">
<title>N1&#45;&gt;N5</title>
<path fill="none" stroke="black" d="M733.61,-590.87C808.33,-564.26 966.3,-508 1038.91,-482.14"/>
<polygon fill="black" stroke="black" points="1039.73,-485.57 1047.97,-478.92 1037.38,-478.98 1039.73,-485.57"/>
</g>
<!-- N11 -->
<g id="node6" class="node">
<title>N11</title>
<polygon fill="none" stroke="black" points="65.75,-380.25 4,-380.25 4,-277.5 65.75,-277.5 65.75,-380.25"/>
<text text-anchor="middle" x="34.88" y="-362.95" font-family="Times New Roman,serif" font-size="14.00">OXO</text>
<text text-anchor="middle" x="34.88" y="-347.2" font-family="Times New Roman,serif" font-size="14.00">.X.</text>
<text text-anchor="middle" x="34.88" y="-331.45" font-family="Times New Roman,serif" font-size="14.00">OXX</text>
<text text-anchor="middle" x="34.88" y="-299.7" font-family="Times New Roman,serif" font-size="14.00">Crosses</text>
<text text-anchor="middle" x="34.88" y="-283.95" font-family="Times New Roman,serif" font-size="14.00">&#45;3/3</text>
</g>
<!-- N2&#45;&gt;N11 -->
<g id="edge5" class="edge">
<title>N2&#45;&gt;N11</title>
<path fill="none" stroke="black" d="M120.6,-434.82C106.78,-418.59 89.81,-398.48 74.88,-380.25 74.34,-379.6 73.81,-378.95 73.27,-378.29"/>
<polygon fill="black" stroke="black" points="76.17,-376.31 67.16,-370.74 70.73,-380.71 76.17,-376.31"/>
</g>
<!-- N17 -->
<g id="node7" class="node">
<title>N17</title>
<polygon fill="none" stroke="black" points="137.88,-380.25 83.88,-380.25 83.88,-277.5 137.88,-277.5 137.88,-380.25"/>
<text text-anchor="middle" x="110.88" y="-362.95" font-family="Times New Roman,serif" font-size="14.00">OXO</text>
<text text-anchor="middle" x="110.88" y="-347.2" font-family="Times New Roman,serif" font-size="14.00">.XX</text>
<text text-anchor="middle" x="110.88" y="-331.45" font-family="Times New Roman,serif" font-size="14.00">O.X</text>
<text text-anchor="middle" x="110.88" y="-299.7" font-family="Times New Roman,serif" font-size="14.00"> </text>
<text text-anchor="middle" x="110.88" y="-283.95" font-family="Times New Roman,serif" font-size="14.00">&#45;2/16</text>
</g>
<!-- N2&#45;&gt;N17 -->
<g id="edge6" class="edge">
<title>N2&#45;&gt;N17</title>
<path fill="none" stroke="black" d="M134.2,-416.09C132.05,-408.14 129.81,-399.85 127.6,-391.67"/>
<polygon fill="black" stroke="black" points="131,-390.86 125.01,-382.12 124.24,-392.68 131,-390.86"/>
</g>
<!-- N18 -->
<g id="node8" class="node">
<title>N18</title>
<polygon fill="none" stroke="black" points="211.88,-380.25 157.88,-380.25 157.88,-277.5 211.88,-277.5 211.88,-380.25"/>
<text text-anchor="middle" x="184.88" y="-362.95" font-family="Times New Roman,serif" font-size="14.00">OXO</text>
<text text-anchor="middle" x="184.88" y="-347.2" font-family="Times New Roman,serif" font-size="14.00">XX.</text>
<text text-anchor="middle" x="184.88" y="-331.45" font-family="Times New Roman,serif" font-size="14.00">O.X</text>
<text text-anchor="middle" x="184.88" y="-299.7" font-family="Times New Roman,serif" font-size="14.00"> </text>
<text text-anchor="middle" x="184.88" y="-283.95" font-family="Times New Roman,serif" font-size="14.00">&#45;3/3</text>
</g>
<!-- N2&#45;&gt;N18 -->
<g id="edge7" class="edge">
<title>N2&#45;&gt;N18</title>
<path fill="none" stroke="black" d="M161.55,-416.09C163.7,-408.14 165.94,-399.85 168.15,-391.67"/>
<polygon fill="black" stroke="black" points="171.51,-392.68 170.74,-382.12 164.75,-390.86 171.51,-392.68"/>
</g>
<!-- N10 -->
<g id="node9" class="node">
<title>N10</title>
<polygon fill="none" stroke="black" points="427.88,-380.25 373.88,-380.25 373.88,-277.5 427.88,-277.5 427.88,-380.25"/>
<text text-anchor="middle" x="400.88" y="-362.95" font-family="Times New Roman,serif" font-size="14.00">OXO</text>
<text text-anchor="middle" x="400.88" y="-347.2" font-family="Times New Roman,serif" font-size="14.00">XX.</text>
<text text-anchor="middle" x="400.88" y="-331.45" font-family="Times New Roman,serif" font-size="14.00">.OX</text>
<text text-anchor="middle" x="400.88" y="-299.7" font-family="Times New Roman,serif" font-size="14.00"> </text>
<text text-anchor="middle" x="400.88" y="-283.95" font-family="Times New Roman,serif" font-size="14.00">&#45;3/6</text>
</g>
<!-- N3&#45;&gt;N10 -->
<g id="edge8" class="edge">
<title>N3&#45;&gt;N10</title>
<path fill="none" stroke="black" d="M559.43,-446.45C527.06,-422.64 473.12,-382.99 437.28,-356.64"/>
<polygon fill="black" stroke="black" points="439.48,-353.91 429.35,-350.81 435.33,-359.55 439.48,-353.91"/>
</g>
<!-- N13 -->
<g id="node10" class="node">
<title>N13</title>
<polygon fill="none" stroke="black" points="577.88,-380.25 523.88,-380.25 523.88,-277.5 577.88,-277.5 577.88,-380.25"/>
<text text-anchor="middle" x="550.88" y="-362.95" font-family="Times New Roman,serif" font-size="14.00">OXO</text>
<text text-anchor="middle" x="550.88" y="-347.2" font-family="Times New Roman,serif" font-size="14.00">.XX</text>
<text text-anchor="middle" x="550.88" y="-331.45" font-family="Times New Roman,serif" font-size="14.00">.OX</text>
<text text-anchor="middle" x="550.88" y="-299.7" font-family="Times New Roman,serif" font-size="14.00"> </text>
<text text-anchor="middle" x="550.88" y="-283.95" font-family="Times New Roman,serif" font-size="14.00">&#45;2/11</text>
</g>
<!-- N3&#45;&gt;N13 -->
<g id="edge9" class="edge">
<title>N3&#45;&gt;N13</title>
<path fill="none" stroke="black" d="M573.57,-416.09C571.48,-408.14 569.29,-399.85 567.14,-391.67"/>
<polygon fill="black" stroke="black" points="570.56,-390.9 564.63,-382.12 563.79,-392.68 570.56,-390.9"/>
</g>
<!-- N14 -->
<g id="node11" class="node">
<title>N14</title>
<polygon fill="none" stroke="black" points="649.88,-380.25 595.88,-380.25 595.88,-277.5 649.88,-277.5 649.88,-380.25"/>
<text text-anchor="middle" x="622.88" y="-362.95" font-family="Times New Roman,serif" font-size="14.00">OXO</text>
<text text-anchor="middle" x="622.88" y="-347.2" font-family="Times New Roman,serif" font-size="14.00">.X.</text>
<text text-anchor="middle" x="622.88" y="-331.45" font-family="Times New Roman,serif" font-size="14.00">XOX</text>
<text text-anchor="middle" x="622.88" y="-299.7" font-family="Times New Roman,serif" font-size="14.00"> </text>
<text text-anchor="middle" x="622.88" y="-283.95" font-family="Times New Roman,serif" font-size="14.00">&#45;1/15</text>
</g>
<!-- N3&#45;&gt;N14 -->
<g id="edge10" class="edge">
<title>N3&#45;&gt;N14</title>
<path fill="none" stroke="black" d="M600.18,-416.09C602.27,-408.14 604.46,-399.85 606.61,-391.67"/>
<polygon fill="black" stroke="black" points="609.96,-392.68 609.12,-382.12 603.19,-390.9 609.96,-392.68"/>
</g>
<!-- N6 -->
<g id="node12" class="node">
<title>N6</title>
<polygon fill="none" stroke="black" points="761.75,-380.25 700,-380.25 700,-277.5 761.75,-277.5 761.75,-380.25"/>
<text text-anchor="middle" x="730.88" y="-362.95" font-family="Times New Roman,serif" font-size="14.00">OXO</text>
<text text-anchor="middle" x="730.88" y="-347.2" font-family="Times New Roman,serif" font-size="14.00">OX.</text>
<text text-anchor="middle" x="730.88" y="-331.45" font-family="Times New Roman,serif" font-size="14.00">.XX</text>
<text text-anchor="middle" x="730.88" y="-299.7" font-family="Times New Roman,serif" font-size="14.00">Crosses</text>
<text text-anchor="middle" x="730.88" y="-283.95" font-family="Times New Roman,serif" font-size="14.00">&#45;9/15</text>
</g>
<!-- N4&#45;&gt;N6 -->
<g id="edge11" class="edge">
<title>N4&#45;&gt;N6</title>
<path fill="none" stroke="black" d="M757.99,-416.09C755.46,-408.05 752.82,-399.66 750.22,-391.4"/>
<polygon fill="black" stroke="black" points="753.64,-390.59 747.3,-382.1 746.96,-392.69 753.64,-390.59"/>
</g>
<!-- N7 -->
<g id="node13" class="node">
<title>N7</title>
<polygon fill="none" stroke="black" points="853.75,-380.25 780,-380.25 780,-277.5 853.75,-277.5 853.75,-380.25"/>
<text text-anchor="middle" x="816.88" y="-362.95" font-family="Times New Roman,serif" font-size="14.00">OXO</text>
<text text-anchor="middle" x="816.88" y="-347.2" font-family="Times New Roman,serif" font-size="14.00">OXX</text>
<text text-anchor="middle" x="816.88" y="-331.45" font-family="Times New Roman,serif" font-size="14.00">..X</text>
<text text-anchor="middle" x="816.88" y="-299.7" font-family="Times New Roman,serif" font-size="14.00"> </text>
<text text-anchor="middle" x="816.88" y="-283.95" font-family="Times New Roman,serif" font-size="14.00">4928/9871</text>
</g>
<!-- N4&#45;&gt;N7 -->
<g id="edge12" class="edge">
<title>N4&#45;&gt;N7</title>
<path fill="none" stroke="black" d="M789.76,-416.09C792.29,-408.05 794.93,-399.66 797.53,-391.4"/>
<polygon fill="black" stroke="black" points="800.79,-392.69 800.45,-382.1 794.11,-390.59 800.79,-392.69"/>
</g>
<!-- N8 -->
<g id="node14" class="node">
<title>N8</title>
<polygon fill="none" stroke="black" points="957.88,-380.25 903.88,-380.25 903.88,-277.5 957.88,-277.5 957.88,-380.25"/>
<text text-anchor="middle" x="930.88" y="-362.95" font-family="Times New Roman,serif" font-size="14.00">OXO</text>
<text text-anchor="middle" x="930.88" y="-347.2" font-family="Times New Roman,serif" font-size="14.00">OX.</text>
<text text-anchor="middle" x="930.88" y="-331.45" font-family="Times New Roman,serif" font-size="14.00">X.X</text>
<text text-anchor="middle" x="930.88" y="-299.7" font-family="Times New Roman,serif" font-size="14.00"> </text>
<text text-anchor="middle" x="930.88" y="-283.95" font-family="Times New Roman,serif" font-size="14.00">&#45;5/43</text>
</g>
<!-- N4&#45;&gt;N8 -->
<g id="edge13" class="edge">
<title>N4&#45;&gt;N8</title>
<path fill="none" stroke="black" d="M811.08,-434.22C836.55,-412.03 870.13,-382.79 895.25,-360.9"/>
<polygon fill="black" stroke="black" points="897.38,-363.69 902.62,-354.49 892.78,-358.42 897.38,-363.69"/>
</g>
<!-- N12 -->
<g id="node15" class="node">
<title>N12</title>
<polygon fill="none" stroke="black" points="1069.75,-380.25 1008,-380.25 1008,-277.5 1069.75,-277.5 1069.75,-380.25"/>
<text text-anchor="middle" x="1038.88" y="-362.95" font-family="Times New Roman,serif" font-size="14.00">OXO</text>
<text text-anchor="middle" x="1038.88" y="-347.2" font-family="Times New Roman,serif" font-size="14.00">.XO</text>
<text text-anchor="middle" x="1038.88" y="-331.45" font-family="Times New Roman,serif" font-size="14.00">.XX</text>
<text text-anchor="middle" x="1038.88" y="-299.7" font-family="Times New Roman,serif" font-size="14.00">Crosses</text>
<text text-anchor="middle" x="1038.88" y="-283.95" font-family="Times New Roman,serif" font-size="14.00">&#45;3/4</text>
</g>
<!-- N5&#45;&gt;N12 -->
<g id="edge14" class="edge">
<title>N5&#45;&gt;N12</title>
<path fill="none" stroke="black" d="M1062.83,-416.09C1060.62,-408.14 1058.32,-399.85 1056.05,-391.67"/>
<polygon fill="black" stroke="black" points="1059.44,-390.81 1053.39,-382.11 1052.7,-392.69 1059.44,-390.81"/>
</g>
<!-- N19 -->
<g id="node16" class="node">
<title>N19</title>
<polygon fill="none" stroke="black" points="1141.88,-380.25 1087.88,-380.25 1087.88,-277.5 1141.88,-277.5 1141.88,-380.25"/>
<text text-anchor="middle" x="1114.88" y="-362.95" font-family="Times New Roman,serif" font-size="14.00">OXO</text>
<text text-anchor="middle" x="1114.88" y="-347.2" font-family="Times New Roman,serif" font-size="14.00">.XO</text>
<text text-anchor="middle" x="1114.88" y="-331.45" font-family="Times New Roman,serif" font-size="14.00">X.X</text>
<text text-anchor="middle" x="1114.88" y="-299.7" font-family="Times New Roman,serif" font-size="14.00"> </text>
<text text-anchor="middle" x="1114.88" y="-283.95" font-family="Times New Roman,serif" font-size="14.00">&#45;3/3</text>
</g>
<!-- N5&#45;&gt;N19 -->
<g id="edge15" class="edge">
<title>N5&#45;&gt;N19</title>
<path fill="none" stroke="black" d="M1090.92,-416.09C1093.13,-408.14 1095.43,-399.85 1097.7,-391.67"/>
<polygon fill="black" stroke="black" points="1101.05,-392.69 1100.36,-382.11 1094.31,-390.81 1101.05,-392.69"/>
</g>
<!-- N27 -->
<g id="node17" class="node">
<title>N27</title>
<polygon fill="none" stroke="black" points="1245.88,-380.25 1191.88,-380.25 1191.88,-277.5 1245.88,-277.5 1245.88,-380.25"/>
<text text-anchor="middle" x="1218.88" y="-362.95" font-family="Times New Roman,serif" font-size="14.00">OXO</text>
<text text-anchor="middle" x="1218.88" y="-347.2" font-family="Times New Roman,serif" font-size="14.00">XXO</text>
<text text-anchor="middle" x="1218.88" y="-331.45" font-family="Times New Roman,serif" font-size="14.00">..X</text>
<text text-anchor="middle" x="1218.88" y="-299.7" font-family="Times New Roman,serif" font-size="14.00"> </text>
<text text-anchor="middle" x="1218.88" y="-283.95" font-family="Times New Roman,serif" font-size="14.00">&#45;2/6</text>
</g>
<!-- N5&#45;&gt;N27 -->
<g id="edge16" class="edge">
<title>N5&#45;&gt;N27</title>
<path fill="none" stroke="black" d="M1104.25,-440.26C1126.85,-418.5 1159.06,-387.48 1183.58,-363.86"/>
<polygon fill="black" stroke="black" points="1185.71,-366.67 1190.49,-357.21 1180.86,-361.63 1185.71,-366.67"/>
</g>
<!-- N20 -->
<g id="node30" class="node">
<title>N20</title>
<polygon fill="none" stroke="black" points="57.88,-241.5 3.88,-241.5 3.88,-138.75 57.88,-138.75 57.88,-241.5"/>
<text text-anchor="middle" x="30.88" y="-224.2" font-family="Times New Roman,serif" font-size="14.00">OXO</text>
<text text-anchor="middle" x="30.88" y="-208.45" font-family="Times New Roman,serif" font-size="14.00">.XX</text>
<text text-anchor="middle" x="30.88" y="-192.7" font-family="Times New Roman,serif" font-size="14.00">OOX</text>
<text text-anchor="middle" x="30.88" y="-160.95" font-family="Times New Roman,serif" font-size="14.00"> </text>
<text text-anchor="middle" x="30.88" y="-145.2" font-family="Times New Roman,serif" font-size="14.00">&#45;2/4</text>
</g>
<!-- N17&#45;&gt;N20 -->
<g id="edge29" class="edge">
<title>N17&#45;&gt;N20</title>
<path fill="none" stroke="black" d="M83.57,-281.2C77.27,-270.42 70.5,-258.85 63.98,-247.71"/>
<polygon fill="black" stroke="black" points="67.17,-246.23 59.1,-239.36 61.12,-249.76 67.17,-246.23"/>
</g>
<!-- N21 -->
<g id="node31" class="node">
<title>N21</title>
<polygon fill="none" stroke="black" points="139.5,-241.5 76.25,-241.5 76.25,-138.75 139.5,-138.75 139.5,-241.5"/>
<text text-anchor="middle" x="107.88" y="-224.2" font-family="Times New Roman,serif" font-size="14.00">OXO</text>
<text text-anchor="middle" x="107.88" y="-208.45" font-family="Times New Roman,serif" font-size="14.00">OXX</text>
<text text-anchor="middle" x="107.88" y="-192.7" font-family="Times New Roman,serif" font-size="14.00">O.X</text>
<text text-anchor="middle" x="107.88" y="-160.95" font-family="Times New Roman,serif" font-size="14.00">Noughts</text>
<text text-anchor="middle" x="107.88" y="-145.2" font-family="Times New Roman,serif" font-size="14.00">&#45;1/11</text>
</g>
<!-- N17&#45;&gt;N21 -->
<g id="edge30" class="edge">
<title>N17&#45;&gt;N21</title>
<path fill="none" stroke="black" d="M109.77,-277.34C109.59,-269.48 109.41,-261.28 109.24,-253.2"/>
<polygon fill="black" stroke="black" points="112.74,-253.34 109.02,-243.42 105.74,-253.49 112.74,-253.34"/>
</g>
<!-- N35 -->
<g id="node32" class="node">
<title>N35</title>
<polygon fill="none" stroke="black" points="211.88,-241.5 157.88,-241.5 157.88,-138.75 211.88,-138.75 211.88,-241.5"/>
<text text-anchor="middle" x="184.88" y="-224.2" font-family="Times New Roman,serif" font-size="14.00">OXO</text>
<text text-anchor="middle" x="184.88" y="-208.45" font-family="Times New Roman,serif" font-size="14.00">XXO</text>
<text text-anchor="middle" x="184.88" y="-192.7" font-family="Times New Roman,serif" font-size="14.00">O.X</text>
<text text-anchor="middle" x="184.88" y="-160.95" font-family="Times New Roman,serif" font-size="14.00"> </text>
<text text-anchor="middle" x="184.88" y="-145.2" font-family="Times New Roman,serif" font-size="14.00">&#45;1/1</text>
</g>
<!-- N18&#45;&gt;N35 -->
<g id="edge31" class="edge">
<title>N18&#45;&gt;N35</title>
<path fill="none" stroke="black" d="M184.88,-277.34C184.88,-269.48 184.88,-261.28 184.88,-253.2"/>
<polygon fill="black" stroke="black" points="188.38,-253.42 184.88,-243.42 181.38,-253.42 188.38,-253.42"/>
</g>
<!-- N41 -->
<g id="node33" class="node">
<title>N41</title>
<polygon fill="none" stroke="black" points="283.88,-241.5 229.88,-241.5 229.88,-138.75 283.88,-138.75 283.88,-241.5"/>
<text text-anchor="middle" x="256.88" y="-224.2" font-family="Times New Roman,serif" font-size="14.00">OXO</text>
<text text-anchor="middle" x="256.88" y="-208.45" font-family="Times New Roman,serif" font-size="14.00">XX.</text>
<text text-anchor="middle" x="256.88" y="-192.7" font-family="Times New Roman,serif" font-size="14.00">OOX</text>
<text text-anchor="middle" x="256.88" y="-160.95" font-family="Times New Roman,serif" font-size="14.00"> </text>
<text text-anchor="middle" x="256.88" y="-145.2" font-family="Times New Roman,serif" font-size="14.00">&#45;1/1</text>
</g>
<!-- N18&#45;&gt;N41 -->
<g id="edge32" class="edge">
<title>N18&#45;&gt;N41</title>
<path fill="none" stroke="black" d="M211.48,-277.34C215.81,-269.12 220.33,-260.53 224.78,-252.09"/>
<polygon fill="black" stroke="black" points="227.87,-253.72 229.43,-243.25 221.68,-250.46 227.87,-253.72"/>
</g>
<!-- N16 -->
<g id="node23" class="node">
<title>N16</title>
<polygon fill="none" stroke="black" points="355.88,-241.5 301.88,-241.5 301.88,-138.75 355.88,-138.75 355.88,-241.5"/>
<text text-anchor="middle" x="328.88" y="-224.2" font-family="Times New Roman,serif" font-size="14.00">OXO</text>
<text text-anchor="middle" x="328.88" y="-208.45" font-family="Times New Roman,serif" font-size="14.00">XXO</text>
<text text-anchor="middle" x="328.88" y="-192.7" font-family="Times New Roman,serif" font-size="14.00">.OX</text>
<text text-anchor="middle" x="328.88" y="-160.95" font-family="Times New Roman,serif" font-size="14.00"> </text>
<text text-anchor="middle" x="328.88" y="-145.2" font-family="Times New Roman,serif" font-size="14.00">&#45;1/3</text>
</g>
<!-- N10&#45;&gt;N16 -->
<g id="edge22" class="edge">
<title>N10&#45;&gt;N16</title>
<path fill="none" stroke="black" d="M374.27,-277.34C369.94,-269.12 365.42,-260.53 360.97,-252.09"/>
<polygon fill="black" stroke="black" points="364.07,-250.46 356.32,-243.25 357.88,-253.72 364.07,-250.46"/>
</g>
<!-- N33 -->
<g id="node24" class="node">
<title>N33</title>
<polygon fill="none" stroke="black" points="427.88,-241.5 373.88,-241.5 373.88,-138.75 427.88,-138.75 427.88,-241.5"/>
<text text-anchor="middle" x="400.88" y="-224.2" font-family="Times New Roman,serif" font-size="14.00">OXO</text>
<text text-anchor="middle" x="400.88" y="-208.45" font-family="Times New Roman,serif" font-size="14.00">XX.</text>
<text text-anchor="middle" x="400.88" y="-192.7" font-family="Times New Roman,serif" font-size="14.00">OOX</text>
<text text-anchor="middle" x="400.88" y="-160.95" font-family="Times New Roman,serif" font-size="14.00"> </text>
<text text-anchor="middle" x="400.88" y="-145.2" font-family="Times New Roman,serif" font-size="14.00">&#45;2/2</text>
</g>
<!-- N10&#45;&gt;N33 -->
<g id="edge23" class="edge">
<title>N10&#45;&gt;N33</title>
<path fill="none" stroke="black" d="M400.88,-277.34C400.88,-269.48 400.88,-261.28 400.88,-253.2"/>
<polygon fill="black" stroke="black" points="404.38,-253.42 400.88,-243.42 397.38,-253.42 404.38,-253.42"/>
</g>
<!-- N24 -->
<g id="node25" class="node">
<title>N24</title>
<polygon fill="none" stroke="black" points="503.88,-241.5 449.88,-241.5 449.88,-138.75 503.88,-138.75 503.88,-241.5"/>
<text text-anchor="middle" x="476.88" y="-224.2" font-family="Times New Roman,serif" font-size="14.00">OXO</text>
<text text-anchor="middle" x="476.88" y="-208.45" font-family="Times New Roman,serif" font-size="14.00">OXX</text>
<text text-anchor="middle" x="476.88" y="-192.7" font-family="Times New Roman,serif" font-size="14.00">.OX</text>
<text text-anchor="middle" x="476.88" y="-160.95" font-family="Times New Roman,serif" font-size="14.00"> </text>
<text text-anchor="middle" x="476.88" y="-145.2" font-family="Times New Roman,serif" font-size="14.00">0/8</text>
</g>
<!-- N13&#45;&gt;N24 -->
<g id="edge24" class="edge">
<title>N13&#45;&gt;N24</title>
<path fill="none" stroke="black" d="M523.53,-277.34C519.03,-269.03 514.33,-260.34 509.71,-251.81"/>
<polygon fill="black" stroke="black" points="512.91,-250.37 505.07,-243.24 506.76,-253.7 512.91,-250.37"/>
</g>
<!-- N25 -->
<g id="node26" class="node">
<title>N25</title>
<polygon fill="none" stroke="black" points="577.88,-241.5 523.88,-241.5 523.88,-138.75 577.88,-138.75 577.88,-241.5"/>
<text text-anchor="middle" x="550.88" y="-224.2" font-family="Times New Roman,serif" font-size="14.00">OXO</text>
<text text-anchor="middle" x="550.88" y="-208.45" font-family="Times New Roman,serif" font-size="14.00">.XX</text>
<text text-anchor="middle" x="550.88" y="-192.7" font-family="Times New Roman,serif" font-size="14.00">OOX</text>
<text text-anchor="middle" x="550.88" y="-160.95" font-family="Times New Roman,serif" font-size="14.00"> </text>
<text text-anchor="middle" x="550.88" y="-145.2" font-family="Times New Roman,serif" font-size="14.00">&#45;2/2</text>
</g>
<!-- N13&#45;&gt;N25 -->
<g id="edge25" class="edge">
<title>N13&#45;&gt;N25</title>
<path fill="none" stroke="black" d="M550.88,-277.34C550.88,-269.48 550.88,-261.28 550.88,-253.2"/>
<polygon fill="black" stroke="black" points="554.38,-253.42 550.88,-243.42 547.38,-253.42 554.38,-253.42"/>
</g>
<!-- N31 -->
<g id="node27" class="node">
<title>N31</title>
<polygon fill="none" stroke="black" points="649.88,-241.5 595.88,-241.5 595.88,-138.75 649.88,-138.75 649.88,-241.5"/>
<text text-anchor="middle" x="622.88" y="-224.2" font-family="Times New Roman,serif" font-size="14.00">OXO</text>
<text text-anchor="middle" x="622.88" y="-208.45" font-family="Times New Roman,serif" font-size="14.00">OX.</text>
<text text-anchor="middle" x="622.88" y="-192.7" font-family="Times New Roman,serif" font-size="14.00">XOX</text>
<text text-anchor="middle" x="622.88" y="-160.95" font-family="Times New Roman,serif" font-size="14.00"> </text>
<text text-anchor="middle" x="622.88" y="-145.2" font-family="Times New Roman,serif" font-size="14.00">0/7</text>
</g>
<!-- N14&#45;&gt;N31 -->
<g id="edge26" class="edge">
<title>N14&#45;&gt;N31</title>
<path fill="none" stroke="black" d="M622.88,-277.34C622.88,-269.48 622.88,-261.28 622.88,-253.2"/>
<polygon fill="black" stroke="black" points="626.38,-253.42 622.88,-243.42 619.38,-253.42 626.38,-253.42"/>
</g>
<!-- N32 -->
<g id="node28" class="node">
<title>N32</title>
<polygon fill="none" stroke="black" points="721.88,-241.5 667.88,-241.5 667.88,-138.75 721.88,-138.75 721.88,-241.5"/>
<text text-anchor="middle" x="694.88" y="-224.2" font-family="Times New Roman,serif" font-size="14.00">OXO</text>
<text text-anchor="middle" x="694.88" y="-208.45" font-family="Times New Roman,serif" font-size="14.00">.XO</text>
<text text-anchor="middle" x="694.88" y="-192.7" font-family="Times New Roman,serif" font-size="14.00">XOX</text>
<text text-anchor="middle" x="694.88" y="-160.95" font-family="Times New Roman,serif" font-size="14.00"> </text>
<text text-anchor="middle" x="694.88" y="-145.2" font-family="Times New Roman,serif" font-size="14.00">0/7</text>
</g>
<!-- N14&#45;&gt;N32 -->
<g id="edge27" class="edge">
<title>N14&#45;&gt;N32</title>
<path fill="none" stroke="black" d="M649.48,-277.34C653.81,-269.12 658.33,-260.53 662.78,-252.09"/>
<polygon fill="black" stroke="black" points="665.87,-253.72 667.43,-243.25 659.68,-250.46 665.87,-253.72"/>
</g>
<!-- N15 -->
<g id="node18" class="node">
<title>N15</title>
<polygon fill="none" stroke="black" points="813.75,-241.5 740,-241.5 740,-138.75 813.75,-138.75 813.75,-241.5"/>
<text text-anchor="middle" x="776.88" y="-224.2" font-family="Times New Roman,serif" font-size="14.00">OXO</text>
<text text-anchor="middle" x="776.88" y="-208.45" font-family="Times New Roman,serif" font-size="14.00">OXX</text>
<text text-anchor="middle" x="776.88" y="-192.7" font-family="Times New Roman,serif" font-size="14.00">O.X</text>
<text text-anchor="middle" x="776.88" y="-160.95" font-family="Times New Roman,serif" font-size="14.00">Noughts</text>
<text text-anchor="middle" x="776.88" y="-145.2" font-family="Times New Roman,serif" font-size="14.00">4929/9808</text>
</g>
<!-- N7&#45;&gt;N15 -->
<g id="edge17" class="edge">
<title>N7&#45;&gt;N15</title>
<path fill="none" stroke="black" d="M802.09,-277.34C799.77,-269.39 797.34,-261.1 794.95,-252.92"/>
<polygon fill="black" stroke="black" points="798.32,-251.97 792.15,-243.36 791.6,-253.94 798.32,-251.97"/>
</g>
<!-- N26 -->
<g id="node19" class="node">
<title>N26</title>
<polygon fill="none" stroke="black" points="885.88,-241.5 831.88,-241.5 831.88,-138.75 885.88,-138.75 885.88,-241.5"/>
<text text-anchor="middle" x="858.88" y="-224.2" font-family="Times New Roman,serif" font-size="14.00">OXO</text>
<text text-anchor="middle" x="858.88" y="-208.45" font-family="Times New Roman,serif" font-size="14.00">OXX</text>
<text text-anchor="middle" x="858.88" y="-192.7" font-family="Times New Roman,serif" font-size="14.00">.OX</text>
<text text-anchor="middle" x="858.88" y="-160.95" font-family="Times New Roman,serif" font-size="14.00"> </text>
<text text-anchor="middle" x="858.88" y="-145.2" font-family="Times New Roman,serif" font-size="14.00">0/62</text>
</g>
<!-- N7&#45;&gt;N26 -->
<g id="edge18" class="edge">
<title>N7&#45;&gt;N26</title>
<path fill="none" stroke="black" d="M832.39,-277.34C834.86,-269.3 837.44,-260.91 839.98,-252.65"/>
<polygon fill="black" stroke="black" points="843.24,-253.94 842.83,-243.35 836.55,-251.88 843.24,-253.94"/>
</g>
<!-- N9 -->
<g id="node20" class="node">
<title>N9</title>
<polygon fill="none" stroke="black" points="957.88,-241.5 903.88,-241.5 903.88,-138.75 957.88,-138.75 957.88,-241.5"/>
<text text-anchor="middle" x="930.88" y="-224.2" font-family="Times New Roman,serif" font-size="14.00">OXO</text>
<text text-anchor="middle" x="930.88" y="-208.45" font-family="Times New Roman,serif" font-size="14.00">OXO</text>
<text text-anchor="middle" x="930.88" y="-192.7" font-family="Times New Roman,serif" font-size="14.00">X.X</text>
<text text-anchor="middle" x="930.88" y="-160.95" font-family="Times New Roman,serif" font-size="14.00"> </text>
<text text-anchor="middle" x="930.88" y="-145.2" font-family="Times New Roman,serif" font-size="14.00">&#45;4/4</text>
</g>
<!-- N8&#45;&gt;N9 -->
<g id="edge19" class="edge">
<title>N8&#45;&gt;N9</title>
<path fill="none" stroke="black" d="M930.88,-277.34C930.88,-269.48 930.88,-261.28 930.88,-253.2"/>
<polygon fill="black" stroke="black" points="934.38,-253.42 930.88,-243.42 927.38,-253.42 934.38,-253.42"/>
</g>
<!-- N23 -->
<g id="node21" class="node">
<title>N23</title>
<polygon fill="none" stroke="black" points="1029.88,-241.5 975.88,-241.5 975.88,-138.75 1029.88,-138.75 1029.88,-241.5"/>
<text text-anchor="middle" x="1002.88" y="-224.2" font-family="Times New Roman,serif" font-size="14.00">OXO</text>
<text text-anchor="middle" x="1002.88" y="-208.45" font-family="Times New Roman,serif" font-size="14.00">OX.</text>
<text text-anchor="middle" x="1002.88" y="-192.7" font-family="Times New Roman,serif" font-size="14.00">XOX</text>
<text text-anchor="middle" x="1002.88" y="-160.95" font-family="Times New Roman,serif" font-size="14.00"> </text>
<text text-anchor="middle" x="1002.88" y="-145.2" font-family="Times New Roman,serif" font-size="14.00">&#45;1/38</text>
</g>
<!-- N8&#45;&gt;N23 -->
<g id="edge20" class="edge">
<title>N8&#45;&gt;N23</title>
<path fill="none" stroke="black" d="M957.48,-277.34C961.81,-269.12 966.33,-260.53 970.78,-252.09"/>
<polygon fill="black" stroke="black" points="973.87,-253.72 975.43,-243.25 967.68,-250.46 973.87,-253.72"/>
</g>
<!-- N34 -->
<g id="node34" class="node">
<title>N34</title>
<polygon fill="none" stroke="black" points="1101.88,-241.5 1047.88,-241.5 1047.88,-138.75 1101.88,-138.75 1101.88,-241.5"/>
<text text-anchor="middle" x="1074.88" y="-224.2" font-family="Times New Roman,serif" font-size="14.00">OXO</text>
<text text-anchor="middle" x="1074.88" y="-208.45" font-family="Times New Roman,serif" font-size="14.00">.XO</text>
<text text-anchor="middle" x="1074.88" y="-192.7" font-family="Times New Roman,serif" font-size="14.00">XOX</text>
<text text-anchor="middle" x="1074.88" y="-160.95" font-family="Times New Roman,serif" font-size="14.00"> </text>
<text text-anchor="middle" x="1074.88" y="-145.2" font-family="Times New Roman,serif" font-size="14.00">&#45;1/1</text>
</g>
<!-- N19&#45;&gt;N34 -->
<g id="edge33" class="edge">
<title>N19&#45;&gt;N34</title>
<path fill="none" stroke="black" d="M1100.09,-277.34C1097.77,-269.39 1095.34,-261.1 1092.95,-252.92"/>
<polygon fill="black" stroke="black" points="1096.32,-251.97 1090.15,-243.36 1089.6,-253.94 1096.32,-251.97"/>
</g>
<!-- N46 -->
<g id="node35" class="node">
<title>N46</title>
<polygon fill="none" stroke="black" points="1173.88,-241.5 1119.88,-241.5 1119.88,-138.75 1173.88,-138.75 1173.88,-241.5"/>
<text text-anchor="middle" x="1146.88" y="-224.2" font-family="Times New Roman,serif" font-size="14.00">OXO</text>
<text text-anchor="middle" x="1146.88" y="-208.45" font-family="Times New Roman,serif" font-size="14.00">OXO</text>
<text text-anchor="middle" x="1146.88" y="-192.7" font-family="Times New Roman,serif" font-size="14.00">X.X</text>
<text text-anchor="middle" x="1146.88" y="-160.95" font-family="Times New Roman,serif" font-size="14.00"> </text>
<text text-anchor="middle" x="1146.88" y="-145.2" font-family="Times New Roman,serif" font-size="14.00">&#45;1/1</text>
</g>
<!-- N19&#45;&gt;N46 -->
<g id="edge34" class="edge">
<title>N19&#45;&gt;N46</title>
<path fill="none" stroke="black" d="M1126.7,-277.34C1128.56,-269.39 1130.5,-261.1 1132.41,-252.92"/>
<polygon fill="black" stroke="black" points="1135.78,-253.91 1134.65,-243.38 1128.96,-252.32 1135.78,-253.91"/>
</g>
<!-- N39 -->
<g id="node41" class="node">
<title>N39</title>
<polygon fill="none" stroke="black" points="1245.88,-241.5 1191.88,-241.5 1191.88,-138.75 1245.88,-138.75 1245.88,-241.5"/>
<text text-anchor="middle" x="1218.88" y="-224.2" font-family="Times New Roman,serif" font-size="14.00">OXO</text>
<text text-anchor="middle" x="1218.88" y="-208.45" font-family="Times New Roman,serif" font-size="14.00">XXO</text>
<text text-anchor="middle" x="1218.88" y="-192.7" font-family="Times New Roman,serif" font-size="14.00">.OX</text>
<text text-anchor="middle" x="1218.88" y="-160.95" font-family="Times New Roman,serif" font-size="14.00"> </text>
<text text-anchor="middle" x="1218.88" y="-145.2" font-family="Times New Roman,serif" font-size="14.00">0/4</text>
</g>
<!-- N27&#45;&gt;N39 -->
<g id="edge40" class="edge">
<title>N27&#45;&gt;N39</title>
<path fill="none" stroke="black" d="M1218.88,-277.34C1218.88,-269.48 1218.88,-261.28 1218.88,-253.2"/>
<polygon fill="black" stroke="black" points="1222.38,-253.42 1218.88,-243.42 1215.38,-253.42 1222.38,-253.42"/>
</g>
<!-- N42 -->
<g id="node42" class="node">
<title>N42</title>
<polygon fill="none" stroke="black" points="1317.88,-241.5 1263.88,-241.5 1263.88,-138.75 1317.88,-138.75 1317.88,-241.5"/>
<text text-anchor="middle" x="1290.88" y="-224.2" font-family="Times New Roman,serif" font-size="14.00">OXO</text>
<text text-anchor="middle" x="1290.88" y="-208.45" font-family="Times New Roman,serif" font-size="14.00">XXO</text>
<text text-anchor="middle" x="1290.88" y="-192.7" font-family="Times New Roman,serif" font-size="14.00">O.X</text>
<text text-anchor="middle" x="1290.88" y="-160.95" font-family="Times New Roman,serif" font-size="14.00"> </text>
<text text-anchor="middle" x="1290.88" y="-145.2" font-family="Times New Roman,serif" font-size="14.00">&#45;1/1</text>
</g>
<!-- N27&#45;&gt;N42 -->
<g id="edge41" class="edge">
<title>N27&#45;&gt;N42</title>
<path fill="none" stroke="black" d="M1245.48,-277.34C1249.81,-269.12 1254.33,-260.53 1258.78,-252.09"/>
<polygon fill="black" stroke="black" points="1261.87,-253.72 1263.43,-243.25 1255.68,-250.46 1261.87,-253.72"/>
</g>
<!-- N28 -->
<g id="node40" class="node">
<title>N28</title>
<polygon fill="none" stroke="black" points="881.88,-102.75 827.88,-102.75 827.88,0 881.88,0 881.88,-102.75"/>
<text text-anchor="middle" x="854.88" y="-85.45" font-family="Times New Roman,serif" font-size="14.00">OXO</text>
<text text-anchor="middle" x="854.88" y="-69.7" font-family="Times New Roman,serif" font-size="14.00">OXX</text>
<text text-anchor="middle" x="854.88" y="-53.95" font-family="Times New Roman,serif" font-size="14.00">XOX</text>
<text text-anchor="middle" x="854.88" y="-22.2" font-family="Times New Roman,serif" font-size="14.00">Draw</text>
<text text-anchor="middle" x="854.88" y="-6.45" font-family="Times New Roman,serif" font-size="14.00">0/61</text>
</g>
<!-- N26&#45;&gt;N28 -->
<g id="edge39" class="edge">
<title>N26&#45;&gt;N28</title>
<path fill="none" stroke="black" d="M857.4,-138.59C857.17,-130.73 856.93,-122.53 856.69,-114.45"/>
<polygon fill="black" stroke="black" points="860.2,-114.56 856.4,-104.67 853.2,-114.77 860.2,-114.56"/>
</g>
<!-- N30 -->
<g id="node22" class="node">
<title>N30</title>
<polygon fill="none" stroke="black" points="961.75,-102.75 900,-102.75 900,0 961.75,0 961.75,-102.75"/>
<text text-anchor="middle" x="930.88" y="-85.45" font-family="Times New Roman,serif" font-size="14.00">OXO</text>
<text text-anchor="middle" x="930.88" y="-69.7" font-family="Times New Roman,serif" font-size="14.00">OXO</text>
<text text-anchor="middle" x="930.88" y="-53.95" font-family="Times New Roman,serif" font-size="14.00">XXX</text>
<text text-anchor="middle" x="930.88" y="-22.2" font-family="Times New Roman,serif" font-size="14.00">Crosses</text>
<text text-anchor="middle" x="930.88" y="-6.45" font-family="Times New Roman,serif" font-size="14.00">&#45;3/3</text>
</g>
<!-- N9&#45;&gt;N30 -->
<g id="edge21" class="edge">
<title>N9&#45;&gt;N30</title>
<path fill="none" stroke="black" d="M930.88,-138.59C930.88,-130.73 930.88,-122.53 930.88,-114.45"/>
<polygon fill="black" stroke="black" points="934.38,-114.67 930.88,-104.67 927.38,-114.67 934.38,-114.67"/>
</g>
<!-- N29 -->
<g id="node37" class="node">
<title>N29</title>
<polygon fill="none" stroke="black" points="1033.88,-102.75 979.88,-102.75 979.88,0 1033.88,0 1033.88,-102.75"/>
<text text-anchor="middle" x="1006.88" y="-85.45" font-family="Times New Roman,serif" font-size="14.00">OXO</text>
<text text-anchor="middle" x="1006.88" y="-69.7" font-family="Times New Roman,serif" font-size="14.00">OXX</text>
<text text-anchor="middle" x="1006.88" y="-53.95" font-family="Times New Roman,serif" font-size="14.00">XOX</text>
<text text-anchor="middle" x="1006.88" y="-22.2" font-family="Times New Roman,serif" font-size="14.00">Draw</text>
<text text-anchor="middle" x="1006.88" y="-6.45" font-family="Times New Roman,serif" font-size="14.00">0/37</text>
</g>
<!-- N23&#45;&gt;N29 -->
<g id="edge36" class="edge">
<title>N23&#45;&gt;N29</title>
<path fill="none" stroke="black" d="M1004.35,-138.59C1004.58,-130.73 1004.82,-122.53 1005.06,-114.45"/>
<polygon fill="black" stroke="black" points="1008.55,-114.77 1005.35,-104.67 1001.55,-114.56 1008.55,-114.77"/>
</g>
<!-- N43 -->
<g id="node29" class="node">
<title>N43</title>
<polygon fill="none" stroke="black" points="350.88,-102.75 296.88,-102.75 296.88,0 350.88,0 350.88,-102.75"/>
<text text-anchor="middle" x="323.88" y="-85.45" font-family="Times New Roman,serif" font-size="14.00">OXO</text>
<text text-anchor="middle" x="323.88" y="-69.7" font-family="Times New Roman,serif" font-size="14.00">XXO</text>
<text text-anchor="middle" x="323.88" y="-53.95" font-family="Times New Roman,serif" font-size="14.00">XOX</text>
<text text-anchor="middle" x="323.88" y="-22.2" font-family="Times New Roman,serif" font-size="14.00">Draw</text>
<text text-anchor="middle" x="323.88" y="-6.45" font-family="Times New Roman,serif" font-size="14.00">0/2</text>
</g>
<!-- N16&#45;&gt;N43 -->
<g id="edge28" class="edge">
<title>N16&#45;&gt;N43</title>
<path fill="none" stroke="black" d="M327.03,-138.59C326.74,-130.73 326.44,-122.53 326.14,-114.45"/>
<polygon fill="black" stroke="black" points="329.65,-114.53 325.79,-104.67 322.65,-114.79 329.65,-114.53"/>
</g>
<!-- N44 -->
<g id="node45" class="node">
<title>N44</title>
<polygon fill="none" stroke="black" points="430.75,-102.75 369,-102.75 369,0 430.75,0 430.75,-102.75"/>
<text text-anchor="middle" x="399.88" y="-85.45" font-family="Times New Roman,serif" font-size="14.00">OXO</text>
<text text-anchor="middle" x="399.88" y="-69.7" font-family="Times New Roman,serif" font-size="14.00">XXX</text>
<text text-anchor="middle" x="399.88" y="-53.95" font-family="Times New Roman,serif" font-size="14.00">OOX</text>
<text text-anchor="middle" x="399.88" y="-22.2" font-family="Times New Roman,serif" font-size="14.00">Crosses</text>
<text text-anchor="middle" x="399.88" y="-6.45" font-family="Times New Roman,serif" font-size="14.00">&#45;1/1</text>
</g>
<!-- N33&#45;&gt;N44 -->
<g id="edge44" class="edge">
<title>N33&#45;&gt;N44</title>
<path fill="none" stroke="black" d="M400.51,-138.59C400.45,-130.73 400.39,-122.53 400.33,-114.45"/>
<polygon fill="black" stroke="black" points="403.83,-114.64 400.26,-104.67 396.83,-114.69 403.83,-114.64"/>
</g>
<!-- N36 -->
<g id="node38" class="node">
<title>N36</title>
<polygon fill="none" stroke="black" points="502.88,-102.75 448.88,-102.75 448.88,0 502.88,0 502.88,-102.75"/>
<text text-anchor="middle" x="475.88" y="-85.45" font-family="Times New Roman,serif" font-size="14.00">OXO</text>
<text text-anchor="middle" x="475.88" y="-69.7" font-family="Times New Roman,serif" font-size="14.00">OXX</text>
<text text-anchor="middle" x="475.88" y="-53.95" font-family="Times New Roman,serif" font-size="14.00">XOX</text>
<text text-anchor="middle" x="475.88" y="-22.2" font-family="Times New Roman,serif" font-size="14.00">Draw</text>
<text text-anchor="middle" x="475.88" y="-6.45" font-family="Times New Roman,serif" font-size="14.00">0/7</text>
</g>
<!-- N24&#45;&gt;N36 -->
<g id="edge37" class="edge">
<title>N24&#45;&gt;N36</title>
<path fill="none" stroke="black" d="M476.51,-138.59C476.45,-130.73 476.39,-122.53 476.33,-114.45"/>
<polygon fill="black" stroke="black" points="479.83,-114.64 476.26,-104.67 472.83,-114.69 479.83,-114.64"/>
</g>
<!-- N40 -->
<g id="node39" class="node">
<title>N40</title>
<polygon fill="none" stroke="black" points="582.75,-102.75 521,-102.75 521,0 582.75,0 582.75,-102.75"/>
<text text-anchor="middle" x="551.88" y="-85.45" font-family="Times New Roman,serif" font-size="14.00">OXO</text>
<text text-anchor="middle" x="551.88" y="-69.7" font-family="Times New Roman,serif" font-size="14.00">XXX</text>
<text text-anchor="middle" x="551.88" y="-53.95" font-family="Times New Roman,serif" font-size="14.00">OOX</text>
<text text-anchor="middle" x="551.88" y="-22.2" font-family="Times New Roman,serif" font-size="14.00">Crosses</text>
<text text-anchor="middle" x="551.88" y="-6.45" font-family="Times New Roman,serif" font-size="14.00">&#45;1/1</text>
</g>
<!-- N25&#45;&gt;N40 -->
<g id="edge38" class="edge">
<title>N25&#45;&gt;N40</title>
<path fill="none" stroke="black" d="M551.24,-138.59C551.3,-130.73 551.36,-122.53 551.42,-114.45"/>
<polygon fill="black" stroke="black" points="554.92,-114.69 551.49,-104.67 547.92,-114.64 554.92,-114.69"/>
</g>
<!-- N38 -->
<g id="node43" class="node">
<title>N38</title>
<polygon fill="none" stroke="black" points="654.88,-102.75 600.88,-102.75 600.88,0 654.88,0 654.88,-102.75"/>
<text text-anchor="middle" x="627.88" y="-85.45" font-family="Times New Roman,serif" font-size="14.00">OXO</text>
<text text-anchor="middle" x="627.88" y="-69.7" font-family="Times New Roman,serif" font-size="14.00">OXX</text>
<text text-anchor="middle" x="627.88" y="-53.95" font-family="Times New Roman,serif" font-size="14.00">XOX</text>
<text text-anchor="middle" x="627.88" y="-22.2" font-family="Times New Roman,serif" font-size="14.00">Draw</text>
<text text-anchor="middle" x="627.88" y="-6.45" font-family="Times New Roman,serif" font-size="14.00">0/6</text>
</g>
<!-- N31&#45;&gt;N38 -->
<g id="edge42" class="edge">
<title>N31&#45;&gt;N38</title>
<path fill="none" stroke="black" d="M624.72,-138.59C625.01,-130.73 625.31,-122.53 625.61,-114.45"/>
<polygon fill="black" stroke="black" points="629.1,-114.79 625.96,-104.67 622.1,-114.53 629.1,-114.79"/>
</g>
<!-- N37 -->
<g id="node44" class="node">
<title>N37</title>
<polygon fill="none" stroke="black" points="726.88,-102.75 672.88,-102.75 672.88,0 726.88,0 726.88,-102.75"/>
<text text-anchor="middle" x="699.88" y="-85.45" font-family="Times New Roman,serif" font-size="14.00">OXO</text>
<text text-anchor="middle" x="699.88" y="-69.7" font-family="Times New Roman,serif" font-size="14.00">XXO</text>
<text text-anchor="middle" x="699.88" y="-53.95" font-family="Times New Roman,serif" font-size="14.00">XOX</text>
<text text-anchor="middle" x="699.88" y="-22.2" font-family="Times New Roman,serif" font-size="14.00">Draw</text>
<text text-anchor="middle" x="699.88" y="-6.45" font-family="Times New Roman,serif" font-size="14.00">0/6</text>
</g>
<!-- N32&#45;&gt;N37 -->
<g id="edge43" class="edge">
<title>N32&#45;&gt;N37</title>
<path fill="none" stroke="black" d="M696.72,-138.59C697.01,-130.73 697.31,-122.53 697.61,-114.45"/>
<polygon fill="black" stroke="black" points="701.1,-114.79 697.96,-104.67 694.1,-114.53 701.1,-114.79"/>
</g>
<!-- N22 -->
<g id="node36" class="node">
<title>N22</title>
<polygon fill="none" stroke="black" points="61.75,-102.75 0,-102.75 0,0 61.75,0 61.75,-102.75"/>
<text text-anchor="middle" x="30.88" y="-85.45" font-family="Times New Roman,serif" font-size="14.00">OXO</text>
<text text-anchor="middle" x="30.88" y="-69.7" font-family="Times New Roman,serif" font-size="14.00">XXX</text>
<text text-anchor="middle" x="30.88" y="-53.95" font-family="Times New Roman,serif" font-size="14.00">OOX</text>
<text text-anchor="middle" x="30.88" y="-22.2" font-family="Times New Roman,serif" font-size="14.00">Crosses</text>
<text text-anchor="middle" x="30.88" y="-6.45" font-family="Times New Roman,serif" font-size="14.00">&#45;3/3</text>
</g>
<!-- N20&#45;&gt;N22 -->
<g id="edge35" class="edge">
<title>N20&#45;&gt;N22</title>
<path fill="none" stroke="black" d="M30.88,-138.59C30.88,-130.73 30.88,-122.53 30.88,-114.45"/>
<polygon fill="black" stroke="black" points="34.38,-114.67 30.88,-104.67 27.38,-114.67 34.38,-114.67"/>
</g>
<!-- N45 -->
<g id="node46" class="node">
<title>N45</title>
<polygon fill="none" stroke="black" points="1245.88,-102.75 1191.88,-102.75 1191.88,0 1245.88,0 1245.88,-102.75"/>
<text text-anchor="middle" x="1218.88" y="-85.45" font-family="Times New Roman,serif" font-size="14.00">OXO</text>
<text text-anchor="middle" x="1218.88" y="-69.7" font-family="Times New Roman,serif" font-size="14.00">XXO</text>
<text text-anchor="middle" x="1218.88" y="-53.95" font-family="Times New Roman,serif" font-size="14.00">XOX</text>
<text text-anchor="middle" x="1218.88" y="-22.2" font-family="Times New Roman,serif" font-size="14.00">Draw</text>
<text text-anchor="middle" x="1218.88" y="-6.45" font-family="Times New Roman,serif" font-size="14.00">0/3</text>
</g>
<!-- N39&#45;&gt;N45 -->
<g id="edge45" class="edge">
<title>N39&#45;&gt;N45</title>
<path fill="none" stroke="black" d="M1218.88,-138.59C1218.88,-130.73 1218.88,-122.53 1218.88,-114.45"/>
<polygon fill="black" stroke="black" points="1222.38,-114.67 1218.88,-104.67 1215.38,-114.67 1222.38,-114.67"/>
</g>
</g>
</svg>
